<?xml version="1.0" encoding="UTF-8" standalone="no"?>
<!-- Created with Inkscape (http://www.inkscape.org/) -->

<svg
   version="1.1"
   id="svg2"
   width="600"
   height="600"
   viewBox="0 0 600 600"
   sodipodi:docname="info_icon.svg"
   inkscape:version="1.1.2 (0a00cf5339, 2022-02-04)"
   xmlns:inkscape="http://www.inkscape.org/namespaces/inkscape"
   xmlns:sodipodi="http://sodipodi.sourceforge.net/DTD/sodipodi-0.dtd"
   xmlns:xlink="http://www.w3.org/1999/xlink"
   xmlns="http://www.w3.org/2000/svg"
   xmlns:svg="http://www.w3.org/2000/svg">
  <defs
     id="defs6" />
  <sodipodi:namedview
     id="namedview4"
     pagecolor="#ffffff"
     bordercolor="#666666"
     borderopacity="1.0"
     inkscape:pageshadow="2"
     inkscape:pageopacity="0.0"
     inkscape:pagecheckerboard="0"
     showgrid="false"
     inkscape:zoom="1.0733333"
     inkscape:cx="299.53416"
     inkscape:cy="300.46584"
     inkscape:window-width="1920"
     inkscape:window-height="999"
     inkscape:window-x="0"
     inkscape:window-y="0"
     inkscape:window-maximized="1"
     inkscape:current-layer="g8" />
  <g
     inkscape:groupmode="layer"
     inkscape:label="Image"
   id="g8">
    <g
       id="g138">
      <path
         style="fill:#30302e"
         d="M 0.16003707,458.25 C 0.24805746,380.2875 0.46562534,318.075 0.64352124,320 4.5214376,361.96268 12.762608,393.60694 28.860161,428.34562 56.6824,488.38628 111.61372,543.3176 171.65438,571.13984 206.39306,587.23739 238.03732,595.47856 280,599.35648 c 1.925,0.17789 -60.2875,0.39546 -138.25,0.48348 L 0,600 Z M 320,599.35648 c 41.96268,-3.87792 73.60694,-12.11909 108.34562,-28.21664 C 488.38628,543.3176 543.3176,488.38628 571.13984,428.34562 587.23739,393.60694 595.47856,361.96268 599.35648,320 c 0.17789,-1.925 0.39546,60.2875 0.48348,138.25 L 600,600 458.25,599.83996 C 380.2875,599.75194 318.075,599.53437 320,599.35648 Z M 274.90459,584.87527 C 251.8784,582.83596 222.75314,576.34915 201.36005,568.49534 185.88302,562.81343 156.57439,547.91839 142.89148,538.78083 99.381361,509.7244 66.598648,472.52278 44.005941,426.56612 30.362071,398.81263 23.282293,377.41131 18.51167,349.5 c -5.93645,-34.73217 -5.93645,-64.26783 0,-99 4.770623,-27.91131 11.850401,-49.31263 25.494271,-77.06612 C 71.974951,116.54109 116.54109,71.974951 173.43388,44.005941 201.18737,30.362071 222.58869,23.282293 250.5,18.51167 c 34.73217,-5.93645 64.26783,-5.93645 99,0 27.91131,4.770623 49.31263,11.850401 77.06612,25.494271 56.89279,27.96901 101.45893,72.535149 129.42794,129.427939 9.96779,20.27585 14.51352,31.96425 19.61123,50.42617 13.58161,49.18732 13.58161,103.09258 0,152.2799 -9.99475,36.19711 -29.09251,73.36963 -53.12407,103.40245 -10.20609,12.75479 -30.18403,32.73273 -42.93882,42.93882 -22.49117,17.99691 -55.09024,36.53797 -80.90245,46.01412 -37.99057,13.94705 -83.3725,19.95465 -123.73536,16.37993 z M 327.5,557.90438 C 413.78967,549.40424 491.57564,495.65562 531.41933,417 c 19.00197,-37.51187 27.6205,-74.01982 27.6205,-117 0,-42.98018 -8.61853,-79.48813 -27.6205,-117 C 492.05156,105.28389 418.01296,53.345887 331,42.406029 306.8965,39.375573 272.24738,40.840563 247.23661,45.947606 147.03715,66.407714 66.407714,147.03715 45.947606,247.23661 40.840563,272.24738 39.375573,306.8965 42.406029,331 53.345887,418.01296 105.28389,492.05156 183,531.41933 c 45.02098,22.80578 92.85246,31.57269 144.5,26.48505 z m -55,-21.0138 C 191.90347,527.02993 122.61424,478.34166 86.610628,406.26954 69.8356,372.68924 62,338.85485 62,300 62,246.01771 77.795599,198.91644 110.45865,155.5 144.2503,110.58341 195.85837,78.081874 251.86097,66.448183 c 28.67648,-5.957104 67.60158,-5.957104 96.27806,0 C 419.6651,81.306639 480.72056,128.33394 513.38937,193.73046 530.1644,227.31076 538,261.14515 538,300 c 0,53.98229 -15.7956,101.08356 -48.45865,144.5 -38.00491,50.51696 -96.52062,84.08326 -160.50334,92.06935 -12.48059,1.55779 -44.92432,1.74212 -56.53801,0.32123 z m 45.09004,-43.88983 c 29.62084,-7.48669 54.65645,-33.7903 66.92267,-70.31213 1.88207,-5.60374 3.02508,-10.32581 2.54001,-10.49349 -0.48507,-0.16768 -3.95787,2.72637 -7.71733,6.43123 C 369.47562,428.34292 351.58076,439 345.12495,439 H 343 v -84.91091 c 0,-79.77761 -0.11173,-85.2699 -1.8482,-90.84919 -2.36851,-7.61004 -7.08109,-14.42809 -12.9844,-18.78552 -13.93966,-10.28935 -41.09079,-10.09382 -61.97063,0.44629 -16.68457,8.42234 -33.07878,26.0075 -43.44342,46.59933 -5.60939,11.1444 -11.31791,28.5 -9.37407,28.5 0.2086,0 3.31542,-2.87891 6.90406,-6.39759 C 230.81089,303.28009 247.93066,293 254.59322,293 H 257 v 84.6844 c 0,94.4137 -0.23647,90.93426 6.88282,101.27529 4.50766,6.54754 12.763,12.45244 20.2076,14.45416 8.11493,2.18194 24.00781,1.98596 33.49962,-0.4131 z M 307.0685,212.38756 c 9.51425,-2.82446 17.10017,-7.34573 23.94617,-14.27208 11.65881,-11.79566 16.55786,-24.61342 15.71465,-41.11548 -1.0544,-20.63509 -11.85586,-37.08788 -30.46016,-46.39692 -34.38728,-17.206368 -75.91122,7.23052 -77.9895,45.89692 -1.3909,25.87765 13.66554,47.5025 38.72034,55.61221 7.23542,2.34195 22.63219,2.48295 30.0685,0.27535 z M 0.16003707,141.75 0,0 141.75,0.16003707 C 219.7125,0.24805746 281.925,0.46562534 280,0.64352124 238.03732,4.5214376 206.39306,12.762608 171.65438,28.860161 111.61372,56.6824 56.6824,111.61372 28.860161,171.65438 12.762608,206.39306 4.5214376,238.03732 0.64352124,280 0.46562534,281.925 0.24805746,219.7125 0.16003707,141.75 Z M 599,278.18642 c 0,-6.96758 -2.56032,-25.32076 -5.57742,-39.98067 C 576.21991,154.61886 522.2788,81.249218 446.34562,38.154555 409.40539,17.189722 368.89293,5.1618862 320,0.64352124 318.075,0.46562534 380.2875,0.24805746 458.25,0.16003707 L 600,0 v 141.5 c 0,77.825 -0.225,141.5 -0.5,141.5 -0.275,0 -0.5,-2.16611 -0.5,-4.81358 z"
         id="path142" />
      <path
         style="fill:#3d74b1"
         d="m 280,599.42859 c -1.925,-0.21756 -8.225,-0.89418 -14,-1.5036 C 200.17466,590.97861 136.23138,560.06811 88.081633,511.91837 39.89769,463.73442 10.756257,403.60454 1.8550232,334 c -1.76211773,-13.77914 -1.76211773,-54.22086 0,-68 C 10.756257,196.39546 39.89769,136.26558 88.081633,88.081633 136.26558,39.89769 196.39546,10.756257 266,1.8550232 c 13.77914,-1.76211773 54.22086,-1.76211773 68,0 C 403.60454,10.756257 463.73442,39.89769 511.91837,88.081633 560.10231,136.26558 589.24374,196.39546 598.14498,266 c 1.76211,13.77914 1.76211,54.22086 0,68 -8.90124,69.60454 -38.04267,129.73442 -86.22661,177.91837 -47.27229,47.27228 -105.94214,76.20305 -173.65063,85.62909 -10.20163,1.42022 -50.76017,2.72962 -58.26774,1.88113 z m 43.5,-14.4983 c 25.14548,-2.19828 52.89076,-8.26686 75.13995,-16.43495 15.47703,-5.68191 44.78566,-20.57695 58.46857,-29.71451 43.51012,-29.05643 76.29283,-66.25805 98.88554,-112.21471 13.64387,-27.75349 20.72365,-49.15481 25.49427,-77.06612 5.93645,-34.73217 5.93645,-64.26783 0,-99 -4.77062,-27.91131 -11.8504,-49.31263 -25.49427,-77.06612 C 528.02505,116.54109 483.45891,71.974951 426.56612,44.005941 398.81263,30.362071 377.41131,23.282293 349.5,18.51167 c -34.73217,-5.93645 -64.26783,-5.93645 -99,0 -27.91131,4.770623 -49.31263,11.850401 -77.06612,25.494271 C 116.54109,71.974951 71.974951,116.54109 44.005941,173.43388 30.362071,201.18737 23.282293,222.58869 18.51167,250.5 c -5.93645,34.73217 -5.93645,64.26783 0,99 4.770623,27.91131 11.850401,49.31263 25.494271,77.06612 27.96901,56.89279 72.535149,101.45893 129.427939,129.42794 9.93636,4.88481 22.50314,10.51038 27.92617,12.50128 37.80226,13.87792 82.53607,19.89723 122.13995,16.43495 z m -32,-25.65303 C 197.61944,556.66338 111.47813,501.68408 68.580666,417 49.578699,379.48813 40.960171,342.98018 40.960171,300 c 0,-42.98018 8.618528,-79.48813 27.620495,-117 C 107.94844,105.28389 181.98704,53.345887 269,42.406029 293.1035,39.375573 327.75262,40.840563 352.76339,45.947606 429.39815,61.595949 495.67664,112.44018 531.41933,183 c 19.00197,37.51187 27.6205,74.01982 27.6205,117 0,42.98018 -8.61853,79.48813 -27.6205,117 C 485.66596,507.32193 393.27628,562.11098 291.5,559.27726 Z m 37.53801,-22.70791 C 408.77982,526.61626 477.55269,478.00749 513.38937,406.26954 530.1644,372.68924 538,338.85485 538,300 538,246.01771 522.2044,198.91644 489.54135,155.5 455.7497,110.58341 404.14163,78.081874 348.13903,66.448183 c -28.67648,-5.957104 -67.60158,-5.957104 -96.27806,0 C 180.3349,81.306639 119.27944,128.33394 86.610628,193.73046 69.8356,227.31076 62,261.14515 62,300 c 0,53.98229 15.795599,101.08356 48.45865,144.5 38.184,50.755 97.31959,84.47214 162.04135,92.39058 11.61369,1.42089 44.05742,1.23656 56.53801,-0.32123 z m -44.94759,-43.1555 c -7.4446,-2.00172 -15.69994,-7.90662 -20.2076,-14.45416 C 256.76353,468.61866 257,472.0981 257,377.6844 V 293 h -2.40678 c -6.66256,0 -23.78233,10.28009 -34.30988,20.60241 -3.58864,3.51868 -6.69546,6.39759 -6.90406,6.39759 -1.94384,0 3.76468,-17.3556 9.37407,-28.5 10.36464,-20.59183 26.75885,-38.17699 43.44342,-46.59933 20.87984,-10.54011 48.03097,-10.73564 61.97063,-0.44629 5.90331,4.35743 10.61589,11.17548 12.9844,18.78552 1.73647,5.57929 1.8482,11.07158 1.8482,90.84919 L 343,439 h 2.12495 c 6.45581,0 24.35067,-10.65708 34.21044,-20.37364 3.75946,-3.70486 7.23226,-6.59891 7.71733,-6.43123 0.48507,0.16768 -0.65794,4.88975 -2.54001,10.49349 -12.26622,36.52183 -37.30183,62.82544 -66.92267,70.31213 -9.49181,2.39906 -25.38469,2.59504 -33.49962,0.4131 z M 277,212.11221 c -14.00434,-4.53291 -26.43439,-14.67034 -32.75701,-26.71524 -13.92092,-26.52005 -3.64896,-59.95169 22.66965,-73.78172 29.44519,-15.473011 65.38006,-1.80495 76.87104,29.23839 3.33697,9.01495 4.0982,23.0828 1.7395,32.14636 -4.90269,18.83904 -19.45885,33.74832 -38.45468,39.38756 -7.43631,2.2076 -22.83308,2.0666 -30.0685,-0.27535 z"
         id="path140" />
    </g>
  </g>
</svg>
